<svg width="1094" height="671" viewBox="0 0 1094 671" fill="none" xmlns="http://www.w3.org/2000/svg">
<g filter="url(#filter0_d)">
<ellipse cx="522" cy="343.5" rx="472" ry="247.5" fill="#8819F8"/>
<ellipse cx="522" cy="343.5" rx="472" ry="247.5" fill="url(#paint0_linear)"/>
</g>
<g filter="url(#filter1_d)">
<path d="M988.634 389.707C1069.56 21.3752 208.642 45.6308 185.874 211.396C163.106 377.161 353.651 354.131 440.025 432.895C526.4 511.658 645.447 472.874 794.921 505.726C935.868 536.704 988.634 389.707 988.634 389.707Z" fill="#E3C7FF"/>
<path d="M988.634 389.707C1069.56 21.3752 208.642 45.6308 185.874 211.396C163.106 377.161 353.651 354.131 440.025 432.895C526.4 511.658 645.447 472.874 794.921 505.726C935.868 536.704 988.634 389.707 988.634 389.707Z" fill="url(#paint1_linear)"/>
</g>
<defs>
<filter id="filter0_d" x="0" y="76" width="1044" height="595" filterUnits="userSpaceOnUse" color-interpolation-filters="sRGB">
<feFlood flood-opacity="0" result="BackgroundImageFix"/>
<feColorMatrix in="SourceAlpha" type="matrix" values="0 0 0 0 0 0 0 0 0 0 0 0 0 0 0 0 0 0 127 0"/>
<feOffset dy="30"/>
<feGaussianBlur stdDeviation="25"/>
<feColorMatrix type="matrix" values="0 0 0 0 0.898325 0 0 0 0 0.800816 0 0 0 0 0.995833 0 0 0 1 0"/>
<feBlend mode="normal" in2="BackgroundImageFix" result="effect1_dropShadow"/>
<feBlend mode="normal" in="SourceGraphic" in2="effect1_dropShadow" result="shape"/>
</filter>
<filter id="filter1_d" x="84" y="0" width="1010" height="614.015" filterUnits="userSpaceOnUse" color-interpolation-filters="sRGB">
<feFlood flood-opacity="0" result="BackgroundImageFix"/>
<feColorMatrix in="SourceAlpha" type="matrix" values="0 0 0 0 0 0 0 0 0 0 0 0 0 0 0 0 0 0 127 0"/>
<feOffset dy="4"/>
<feGaussianBlur stdDeviation="50"/>
<feColorMatrix type="matrix" values="0 0 0 0 0.3125 0 0 0 0 0.3125 0 0 0 0 0.3125 0 0 0 0.25 0"/>
<feBlend mode="normal" in2="BackgroundImageFix" result="effect1_dropShadow"/>
<feBlend mode="normal" in="SourceGraphic" in2="effect1_dropShadow" result="shape"/>
</filter>
<linearGradient id="paint0_linear" x1="50" y1="234.733" x2="536.295" y2="754.471" gradientUnits="userSpaceOnUse">
<stop offset="0.302003" stop-color="#955FFE"/>
<stop offset="1" stop-color="#5C5FFC"/>
</linearGradient>
<linearGradient id="paint1_linear" x1="994" y1="407.437" x2="446.884" y2="-88.5442" gradientUnits="userSpaceOnUse">
<stop stop-color="#5C5FFC"/>
<stop offset="1" stop-color="#955FFE"/>
</linearGradient>
</defs>
</svg>
