<svg width="160" height="160" viewBox="0 0 160 160" fill="none" xmlns="http://www.w3.org/2000/svg">
<circle cx="80" cy="80" r="80" fill="#DEDEDE" fill-opacity="0.5"/>
<circle cx="80" cy="80" r="67.3684" fill="#E9E9E9" fill-opacity="0.5"/>
<circle cx="80" cy="80" r="54.7368" fill="white"/>
<path d="M101.025 101.983L88.3373 71.0571C87.6337 69.3414 87.2766 67.5314 87.2766 65.677V57.5023C87.2766 56.622 87.6195 55.7944 88.242 55.1718C89.001 54.4128 89.4194 53.4035 89.4194 52.33V51.1719C89.4194 50.5246 88.8944 50 88.2475 50H71.8857C71.2384 50 70.7138 50.5246 70.7138 51.1719V52.33C70.7138 53.4035 71.1318 54.4128 71.8907 55.1718C72.5133 55.7944 72.8561 56.622 72.8561 57.5027V65.677C72.8561 67.5314 72.4995 69.3414 71.7955 71.0571L68.3092 79.5551C68.3078 79.5583 68.3064 79.5615 68.3051 79.5647L59.1077 101.983C58.3711 103.779 58.5767 105.814 59.6579 107.426C60.7391 109.038 62.5432 110 64.4841 110H95.6487C97.5896 110 99.3941 109.038 100.475 107.426C101.556 105.813 101.762 103.779 101.025 101.983V101.983ZM73.9639 71.9466C74.7842 69.9475 75.1999 67.8381 75.1999 65.677V57.5023C75.1999 55.9962 74.6135 54.5799 73.5483 53.5147C73.2352 53.2016 73.0612 52.7859 73.0576 52.3438H87.0757C87.072 52.7859 86.898 53.2011 86.5845 53.5147C85.5197 54.5799 84.9329 55.9958 84.9329 57.5023V65.6766C84.9329 67.8377 85.349 69.9471 86.1688 71.9461L88.9983 78.8428H71.1345L73.9639 71.9466ZM98.5284 106.12C97.8738 107.096 96.8242 107.656 95.6487 107.656H64.4841C63.309 107.656 62.2594 107.096 61.6043 106.12C61.1104 105.383 60.9218 104.529 61.05 103.687H62.9808C63.6276 103.687 64.1527 103.162 64.1527 102.515C64.1527 101.868 63.6276 101.343 62.9808 101.343H61.9042L63.25 98.062H65.2266C65.8739 98.062 66.3985 97.5369 66.3985 96.8901C66.3985 96.2428 65.8739 95.7182 65.2266 95.7182H64.2117L65.5576 92.437H67.59C68.2373 92.437 68.7619 91.9119 68.7619 91.2651C68.7619 90.6178 68.2373 90.0932 67.59 90.0932H66.5193L67.8656 86.812H69.953C70.6003 86.812 71.1249 86.2869 71.1249 85.6401C71.1249 84.9928 70.6003 84.4682 69.953 84.4682H68.8269L70.1732 81.187H89.9596L98.8567 102.873C99.3025 103.96 99.183 105.144 98.5284 106.12V106.12Z" fill="#693DB8"/>
<path d="M95.2381 102.056C94.9927 101.457 94.3088 101.171 93.7096 101.415C93.1108 101.661 92.8238 102.345 93.0687 102.944L93.0751 102.959C93.261 103.412 93.6981 103.687 94.16 103.687C94.3079 103.687 94.458 103.659 94.6036 103.599C95.2024 103.354 95.4894 102.67 95.244 102.071L95.2381 102.056Z" fill="#693DB8"/>
<path d="M93.5818 98.019L89.3851 87.7898C89.1397 87.191 88.4554 86.9045 87.8561 87.1503C87.2574 87.3957 86.9713 88.0805 87.2166 88.6792L91.4134 98.9084C91.5993 99.3621 92.0364 99.6358 92.4983 99.6358C92.6462 99.6358 92.7968 99.6079 92.9423 99.5479C93.5411 99.3026 93.8277 98.6177 93.5818 98.019V98.019Z" fill="#693DB8"/>
</svg>
