<svg width="160" height="160" viewBox="0 0 160 160" fill="none" xmlns="http://www.w3.org/2000/svg">
<circle cx="80" cy="80" r="80" fill="#FFECC2"/>
<circle cx="80" cy="80" r="67.3684" fill="#E7AC2D" fill-opacity="0.5"/>
<circle cx="80" cy="80" r="54.7368" fill="#E7AC2D"/>
<path d="M74.9261 66.0816C77.5369 66.0816 79.6611 63.9576 79.6611 61.3468C79.6611 58.736 77.5369 56.6118 74.9261 56.6118C72.3153 56.6118 70.1913 58.736 70.1913 61.3468C70.1913 63.9576 72.3153 66.0816 74.9261 66.0816ZM74.9261 58.3696C76.5678 58.3696 77.9032 59.7051 77.9032 61.3468C77.9032 62.9883 76.5678 64.3238 74.9261 64.3238C73.2845 64.3238 71.9491 62.9883 71.9491 61.3468C71.9491 59.7052 73.2845 58.3696 74.9261 58.3696Z" fill="white"/>
<path d="M73.1842 101.211C76.1721 101.211 78.6029 98.7802 78.6029 95.7924C78.6029 92.8046 76.1721 90.3738 73.1842 90.3738C70.1964 90.3738 67.7656 92.8046 67.7656 95.7924C67.7656 98.7802 70.1964 101.211 73.1842 101.211ZM73.1842 92.1316C75.2029 92.1316 76.8451 93.7739 76.8451 95.7924C76.8451 97.811 75.2028 99.4532 73.1842 99.4532C71.1657 99.4532 69.5234 97.811 69.5234 95.7924C69.5234 93.7739 71.1656 92.1316 73.1842 92.1316Z" fill="white"/>
<path d="M65.4239 65.4255C62.2562 65.4255 59.6792 68.0026 59.6792 71.1703C59.6792 74.338 62.2562 76.9151 65.4239 76.9151C68.5916 76.9151 71.1687 74.338 71.1687 71.1703C71.1687 68.0026 68.5916 65.4255 65.4239 65.4255ZM65.4239 75.1574C63.2255 75.1574 61.437 73.3689 61.437 71.1704C61.437 68.972 63.2256 67.1835 65.4239 67.1835C67.6222 67.1835 69.4109 68.972 69.4109 71.1704C69.4109 73.3689 67.6224 75.1574 65.4239 75.1574Z" fill="white"/>
<path d="M63.7786 90.8658C66.9463 90.8658 69.5234 88.2887 69.5234 85.121C69.5234 81.9533 66.9463 79.3762 63.7786 79.3762C60.6109 79.3762 58.0339 81.9533 58.0339 85.121C58.0339 88.2887 60.6109 90.8658 63.7786 90.8658ZM63.7786 81.1339C65.9771 81.1339 67.7656 82.9224 67.7656 85.1209C67.7656 87.3193 65.9769 89.1078 63.7786 89.1078C61.5803 89.1078 59.7917 87.3193 59.7917 85.1209C59.7917 82.9224 61.5802 81.1339 63.7786 81.1339Z" fill="white"/>
<path d="M69.5045 107.474C69.9814 107.562 70.4397 107.245 70.527 106.768C70.6143 106.29 70.2978 105.832 69.8202 105.745C66.4515 105.13 63.4379 103.459 61.1053 100.912C54.311 93.4945 51.2859 85.4939 52.1141 77.1326C53.9828 58.2629 73.8816 48.8707 92.2328 52.5411C94.712 53.0369 95.6776 55.0576 95.7508 56.6373C95.8234 58.1966 95.0599 60.2707 92.6695 60.9848C89.5811 61.9074 87.1391 63.254 85.4116 64.9871C81.4521 68.9594 81.1091 75.6616 84.8899 80.1762C86.7568 82.4055 87.951 85.1087 88.352 88.0074C86.3617 92.5312 84.3264 97.6541 82.7513 102.396C80.2207 104.486 77.0188 105.753 73.7066 105.969C73.2222 106.001 72.8551 106.419 72.8868 106.904C72.9173 107.368 73.3037 107.725 73.7631 107.725C73.7823 107.725 73.8017 107.725 73.8212 107.723C76.6732 107.537 79.4525 106.648 81.8689 105.175C81.3577 106.956 82.1922 108.821 83.8706 109.628C85.6628 110.489 87.8325 109.807 88.8106 108.076C90.503 105.082 92.3368 101.447 94.1135 97.5659C94.3156 97.1245 94.1215 96.603 93.6803 96.4009C93.2387 96.1988 92.7173 96.3931 92.5153 96.8343C90.759 100.671 88.9487 104.26 87.2803 107.211C86.7557 108.14 85.5926 108.505 84.6319 108.044C83.7229 107.607 83.2749 106.591 83.5667 105.629C85.8356 98.1452 89.6194 89.0352 93.0857 81.9908L97.8097 84.013C96.7082 87.0146 95.4535 90.14 94.1733 93.1033C93.981 93.549 94.1864 94.0661 94.6321 94.2584C95.0784 94.4509 95.595 94.2453 95.7873 93.7996C98.1987 88.2035 100.89 81.2137 102.461 75.3332C103.019 75.1327 103.423 74.7289 103.636 74.2292L104.397 72.4522C104.56 72.0715 104.596 71.668 104.525 71.2886C105.988 70.3547 108.036 68.6889 109.097 66.2099C110.408 63.1478 109.537 57.9601 108.901 55.1404C108.779 54.6001 108.402 54.1473 107.893 53.9294C107.383 53.7114 106.796 53.7511 106.321 54.036C103.842 55.5225 99.4866 58.4733 98.1759 61.5351C97.1151 64.013 97.3229 66.6437 97.6568 68.3469C97.3242 68.5627 97.0629 68.8717 96.9034 69.2444L96.1427 71.0214C95.9271 71.5249 95.9167 72.0937 96.1554 72.634C93.797 76.4987 91.4556 81.1892 89.5669 85.3045C88.9035 83.0145 87.7773 80.8865 86.2376 79.0478C84.7633 77.2873 84.0158 75.2239 84.0158 72.9148C84.0158 67.9315 87.0966 64.4845 93.1727 62.6693C95.9399 61.8426 97.6411 59.443 97.5069 56.556C97.3959 54.1682 95.8286 51.4679 92.5775 50.8176C73.2321 46.9483 52.3417 57.002 50.3647 76.9594C49.4852 85.8391 52.6627 94.2975 59.8091 102.1C62.4028 104.931 65.7554 106.79 69.5045 107.474ZM97.5035 73.7999C98.6553 74.2929 99.5347 74.6694 100.687 75.1624C100.112 77.2756 99.3336 79.7314 98.4063 82.3562L93.8723 80.4154C95.1319 77.9321 96.3713 75.6738 97.5035 73.7999ZM102.781 71.7603L102.02 73.5374C101.959 73.6808 101.798 73.7263 101.678 73.6746L97.8957 72.0557C97.7731 72.0032 97.6978 71.8548 97.7585 71.713L98.5191 69.9359C98.5784 69.7977 98.7352 69.7443 98.8621 69.7988L102.644 71.4176C102.766 71.4698 102.841 71.621 102.781 71.7603ZM99.7917 62.2268C100.177 61.3277 101.668 58.8806 107.194 55.562C108.607 61.8511 107.865 64.6189 107.481 65.5181C106.573 67.6382 104.748 69.0776 103.479 69.8702C103.432 69.8455 103.384 69.8226 103.335 69.8017L99.5535 68.1828H99.5534C99.5046 68.1619 99.4549 68.1429 99.4045 68.126C99.1028 66.6611 98.8843 64.3467 99.7917 62.2268Z" fill="white"/>
</svg>
