<svg width="160" height="160" viewBox="0 0 160 160" fill="none" xmlns="http://www.w3.org/2000/svg">
<circle cx="80" cy="80" r="80" fill="#A6F2FF" fill-opacity="0.5"/>
<circle cx="80" cy="80" r="67.3684" fill="#70EBFF" fill-opacity="0.5"/>
<circle cx="80" cy="80" r="54.7368" fill="#76DAF1"/>
<path d="M108.723 50H51.2765C50.5717 50 50 50.571 50 51.2767V108.723C50 109.429 50.5717 110 51.2765 110H108.723C109.428 110 110 109.429 110 108.723V51.2767C110 50.571 109.428 50 108.723 50ZM52.5532 52.5532H107.447V64.9788H52.5532V52.5532ZM107.447 107.447H52.5532V67.532H107.447V107.447Z" fill="white"/>
<path d="M88.89 56.8218H86.3369V60.7115H88.89V56.8218Z" fill="white"/>
<path d="M96.726 56.8218H94.1729V60.7115H96.726V56.8218Z" fill="white"/>
<path d="M104.563 56.8218H102.009V60.7115H104.563V56.8218Z" fill="white"/>
<path d="M71.6846 89.705L64.6772 86.387L71.6846 83.1568V79.948L61.0767 84.9464V87.9368L71.6846 92.9352V89.705Z" fill="white"/>
<path d="M86.1327 77.4817H83.0332L73.8889 97.4976H76.9653L86.1327 77.4817Z" fill="white"/>
<path d="M98.9238 84.9464L88.3159 79.948V83.1568L95.3233 86.387L88.3159 89.705V92.9352L98.9238 87.9368V84.9464Z" fill="white"/>
</svg>
